<svg id="Frame" xmlns="http://www.w3.org/2000/svg" width="24" height="24" viewBox="0 0 24 24">
  <path id="Vector" d="M0,0H24V24H0Z" fill="none"/>
  <path id="Vector-2" data-name="Vector" d="M14.5,0C17.538,0,20,2.5,20,6c0,7-7.5,11-10,12.5C7.5,17,0,13,0,6A5.675,5.675,0,0,1,5.5,0,6.617,6.617,0,0,1,10,2,6.617,6.617,0,0,1,14.5,0ZM10.934,15.6a26.953,26.953,0,0,0,2.42-1.7C16.335,11.533,18,8.943,18,6c0-2.36-1.537-4-3.5-4a4.608,4.608,0,0,0-3.086,1.414L10,4.828,8.586,3.414A4.608,4.608,0,0,0,5.5,2C3.56,2,2,3.656,2,6c0,2.944,1.666,5.533,4.645,7.9a26.908,26.908,0,0,0,2.421,1.7c.3.189.6.37.934.572.339-.2.635-.383.934-.571Z" transform="translate(2 3)" fill="#252525"/>
</svg>
