<svg xmlns="http://www.w3.org/2000/svg" width="64" height="12" viewBox="0 0 64 12">
  <path id="merce_logo" data-name="merce logo" d="M5.107,1.781H8.739V2.989a4.788,4.788,0,0,1,3.325-1.362,3.974,3.974,0,0,1,2.014.45,3.857,3.857,0,0,1,1.5,1.392,3.874,3.874,0,0,1,1.494-1.4,3.991,3.991,0,0,1,2.016-.459,4.6,4.6,0,0,1,1.369.206,2.647,2.647,0,0,1,1.1.625,2.964,2.964,0,0,1,.737,1.131,4.667,4.667,0,0,1,.272,1.713v6.4H18.926V6.818a5.221,5.221,0,0,0-.114-1.225,1.851,1.851,0,0,0-.316-.754A1.077,1.077,0,0,0,18,4.479a1.793,1.793,0,0,0-.605-.1q-1.755,0-1.755,2.441v4.865H12.012V6.818a6.441,6.441,0,0,0-.1-1.233,2.287,2.287,0,0,0-.3-.779.926.926,0,0,0-.491-.394,2.245,2.245,0,0,0-1.342,0,1.052,1.052,0,0,0-.526.377,1.915,1.915,0,0,0-.36.762,5.213,5.213,0,0,0-.132,1.276v4.865H5.133ZM27.262,7.3a1.965,1.965,0,0,0,2.2,2.244,2.023,2.023,0,0,0,1-.228,1.964,1.964,0,0,0,.751-.689h3.51Q33.667,12,29.411,12a7.311,7.311,0,0,1-2.387-.368,5.293,5.293,0,0,1-1.851-1.071A4.679,4.679,0,0,1,23.98,8.907a5.317,5.317,0,0,1-.421-2.15,5.868,5.868,0,0,1,.4-2.218A4.6,4.6,0,0,1,25.1,2.826a4.977,4.977,0,0,1,1.755-1.071,7.229,7.229,0,0,1,2.378-.377,6.987,6.987,0,0,1,2.343.377,4.666,4.666,0,0,1,1.755,1.088,4.594,4.594,0,0,1,1.106,1.713,6.494,6.494,0,0,1,.377,2.312v.368Zm4.247-2.021a1.989,1.989,0,0,0-.737-1.165,2.38,2.38,0,0,0-2.738,0A1.924,1.924,0,0,0,27.358,5.3Zm4.457-3.495h3.624V3.4a4.062,4.062,0,0,1,1.43-1.362,4.07,4.07,0,0,1,1.957-.471h.316a2.8,2.8,0,0,1,.386.043V4.959a3.581,3.581,0,0,0-1.562-.351,2.4,2.4,0,0,0-1.033.153,2.354,2.354,0,0,0-.863.575,3.107,3.107,0,0,0-.632,2.1v4.231H35.966ZM52.022,4.959a3.416,3.416,0,0,0-1.9-.608,2.537,2.537,0,0,0-.974.171,2.421,2.421,0,0,0-.79.488,2.235,2.235,0,0,0-.526.745,2.34,2.34,0,0,0-.193.976,2.223,2.223,0,0,0,.193.951,2.255,2.255,0,0,0,1.307,1.233,2.77,2.77,0,0,0,.983.18,3.117,3.117,0,0,0,1.9-.677v2.955a6.662,6.662,0,0,1-2.545.565,6.276,6.276,0,0,1-2.132-.368,5.58,5.58,0,0,1-1.755-1.045A5.259,5.259,0,0,1,44.363,8.89,4.809,4.809,0,0,1,43.9,6.766a5.034,5.034,0,0,1,.447-2.141,4.965,4.965,0,0,1,1.2-1.713,5.507,5.507,0,0,1,1.816-1.1,6.276,6.276,0,0,1,2.255-.394,5.631,5.631,0,0,1,2.448.54Zm4.334,2.33a1.962,1.962,0,0,0,2.2,2.244,2.022,2.022,0,0,0,1-.228,1.964,1.964,0,0,0,.751-.689h3.51c-.711,2.253-2.474,3.375-5.265,3.375a7.239,7.239,0,0,1-2.387-.368,5.293,5.293,0,0,1-1.851-1.071,4.706,4.706,0,0,1-1.2-1.653,5.317,5.317,0,0,1-.421-2.15,6.019,6.019,0,0,1,.4-2.218,4.71,4.71,0,0,1,1.141-1.713,5.1,5.1,0,0,1,1.8-1.071,7.175,7.175,0,0,1,2.378-.377,7.023,7.023,0,0,1,2.343.377,4.672,4.672,0,0,1,2.86,2.8A6.7,6.7,0,0,1,64,6.86v.368ZM60.6,5.267A2.087,2.087,0,0,0,59.919,4.1a2.389,2.389,0,0,0-2.738,0,1.957,1.957,0,0,0-.667,1.191ZM1.816,0H0V4.959H1.816Z" fill="#252525"/>
</svg>
