<svg id="Frame" xmlns="http://www.w3.org/2000/svg" width="24" height="24" viewBox="0 0 24 24">
  <path id="Vector" d="M0,0H24V24H0Z" fill="none"/>
  <path id="Vector-2" data-name="Vector" d="M8.606,15a10.68,10.68,0,0,1,8.607,3.925l-1.842.871A8.867,8.867,0,0,0,8.606,17a8.867,8.867,0,0,0-6.765,2.8L0,18.924A10.677,10.677,0,0,1,8.606,15Zm0-15a5,5,0,0,1,5,5V8a5,5,0,0,1-4.783,4.995L8.606,13a5,5,0,0,1-5-5V5A5,5,0,0,1,8.389.005Zm0,2A3,3,0,0,0,5.611,4.824L5.606,5V8a3,3,0,0,0,5.995.176L11.606,8V5a3,3,0,0,0-3-3Z" transform="translate(3.394 2)" fill="#252525"/>
</svg>
