<svg id="Frame" xmlns="http://www.w3.org/2000/svg" xmlns:xlink="http://www.w3.org/1999/xlink" width="24" height="24" viewBox="0 0 24 24">
  <defs>
    <linearGradient id="linear-gradient" y1="0.583" x2="1" y2="0.59" gradientUnits="objectBoundingBox">
      <stop offset="0" stop-color="#3ce2ce"/>
      <stop offset="1" stop-color="#3cd8e2"/>
    </linearGradient>
  </defs>
  <path id="Vector" d="M0,0H24V24H0Z" fill="none"/>
  <path id="Vector-2" data-name="Vector" d="M3.5,0h11a1,1,0,0,1,.8.4L18,4V19a1,1,0,0,1-1,1H1a1,1,0,0,1-1-1V4L2.7.4A1,1,0,0,1,3.5,0ZM16,6H2V18H16Zm-.5-2L14,2H4L2.5,4ZM6,8v2a3,3,0,1,0,6,0V8h2v2A5,5,0,0,1,4,10V8Z" transform="translate(3 2)" fill="url(#linear-gradient)"/>
</svg>
